<?xml version="1.0" encoding="UTF-8" standalone="no"?><!DOCTYPE svg PUBLIC "-//W3C//DTD SVG 1.1//EN" "http://www.w3.org/Graphics/SVG/1.1/DTD/svg11.dtd"><svg width="60" height="60" viewBox="0 0 72 72" version="1.1" xmlns="http://www.w3.org/2000/svg" xmlns:xlink="http://www.w3.org/1999/xlink" xml:space="preserve" xmlns:serif="http://www.serif.com/" style="fill-rule:evenodd;clip-rule:evenodd;stroke-linecap:round;stroke-linejoin:round;stroke-miterlimit:3.864;"><g><path d="M6.356,0.635l63.058,0c0,0 -1.583,0.657 -1.71,1.713c0,0 -3.85,45.491 -4.827,62.122c-0.678,2.788 -2.783,3.735 -4.821,3.735l-23.632,0c-0.619,0 -1.661,2.206 -1.661,2.206c0,0 -0.76,-2.206 -1.494,-2.206l-24.148,0c-2.84,0 -4.569,-1.859 -4.478,-3.774c0,0 4.69,-60.468 4.69,-62.083c-0.047,-1.467 -0.977,-1.713 -0.977,-1.713" style="fill:#fff;fill-rule:nonzero;"/><g><path d="M6.302,1.589l63.058,0c0,0 -1.582,0.657 -1.71,1.713c0,0 -3.849,45.491 -4.827,62.121c-0.678,2.789 -2.783,3.736 -4.821,3.736l-23.631,0c-0.619,0 -1.661,2.206 -1.661,2.206c0,0 -0.761,-2.206 -1.494,-2.206l-24.149,0c-2.839,0 -4.569,-1.86 -4.477,-3.774c0,0 4.69,-60.468 4.69,-62.083c-0.048,-1.467 -0.978,-1.713 -0.978,-1.713Z" style="fill:none;fill-rule:nonzero;stroke:#00538e;stroke-width:0.92px;"/><path d="M17.441,24.963l4.035,0l-3.217,39.928l-4.017,0l3.199,-39.928Z" style="fill:#ef3d42;fill-rule:nonzero;"/><path d="M25.616,24.963l4.033,0l-3.216,39.928l-4.02,0l3.203,-39.928Z" style="fill:#ef3d42;fill-rule:nonzero;"/><path d="M41.962,24.963l4.035,0l-3.217,39.928l-4.02,0l3.202,-39.928Z" style="fill:#ef3d42;fill-rule:nonzero;"/><path d="M50.134,24.963l4.037,0l-3.216,39.928l-4.02,0l3.199,-39.928Z" style="fill:#ef3d42;fill-rule:nonzero;"/><path d="M9.188,24.963l4.158,0l-3.217,39.928l-1.473,0.004c-0.644,0 -2.5,0.227 -2.36,-2.015c0.043,-0.722 1.618,-21.263 2.892,-37.917" style="fill:#ef3d42;fill-rule:nonzero;"/><path d="M55.145,64.892l3.216,-39.929l4.019,0c-1.279,16.535 -2.857,36.852 -2.885,37.574c-0.195,2.742 -1.956,2.321 -4.099,2.358l-0.251,-0.003Z" style="fill:#ef3d42;fill-rule:nonzero;"/><path d="M34.631,64.895l-0.444,0c-0.857,0.003 -1.187,0.951 -1.437,0.849c-0.143,-0.052 -0.46,-0.846 -1.249,-0.849l-0.89,-0.003l3.206,-39.954l4.035,0l-3.221,39.957Z" style="fill:#ef3d42;fill-rule:nonzero;"/></g><path d="M9.188,24.956l1.611,-21.137l53.199,0l-1.636,21.137l-53.174,0Z" style="fill:#00538e;fill-rule:nonzero;stroke:#00538e;stroke-width:0.93px;stroke-linecap:butt;stroke-linejoin:miter;"/><path d="M49.282,10.802c-0.466,2.946 1.319,5.001 4.242,5.001c2.923,0 5.362,-2.076 5.83,-5.024c0.438,-2.753 -1.672,-4.686 -4.291,-4.686c-2.622,0 -5.342,1.969 -5.781,4.722l2.463,-0.024c0.198,-1.256 1.54,-2.403 2.95,-2.403c1.418,0 2.392,1.147 2.194,2.403c-0.249,1.57 -1.588,2.716 -3.001,2.716c-1.414,0 -2.392,-1.146 -2.143,-2.716l-2.463,0.011Z" style="fill:#fff;fill-rule:nonzero;"/><path d="M15.305,10.585l-0.771,4.916l2.368,0l0.478,-3.018l1.339,0c2.068,0 3.375,-0.944 3.717,-3.094c0.332,-2.088 -0.88,-2.994 -2.835,-2.994l-3.627,0l-0.669,4.19l2.376,-0.013l0.36,-2.268l0.401,0c0.916,0 1.699,0.01 1.518,1.159c-0.177,1.109 -1.022,1.109 -1.88,1.109l-2.775,0.013Z" style="fill:#fff;fill-rule:nonzero;"/><path d="M28.821,8.397l0.317,-2.003l-5.179,0l-1.444,9.108l5.182,0l0.319,-2.007l-2.817,0l0.25,-1.569l2.667,0l0.32,-2.007l-2.669,0l0.24,-1.522l2.814,0Z" style="fill:#fff;fill-rule:nonzero;"/><path d="M28.611,15.501l2.354,0l1.593,-5.24l0.022,0l1.26,5.24l0.942,0l3.016,-5.24l0.027,0l-0.168,5.24l2.366,0l0.065,-9.106l-2.352,0l-2.728,4.866l-1.076,-4.866l-2.331,0l-2.99,9.106Z" style="fill:#fff;fill-rule:nonzero;"/><path d="M48.943,6.611c-0.655,-0.29 -1.328,-0.459 -2.091,-0.459c-1.279,0 -2.661,0.556 -3.698,1.472c-1.013,0.895 -1.671,2.091 -1.869,3.335c-0.212,1.352 0.057,2.536 0.917,3.443c0.806,0.856 1.937,1.339 3.205,1.339c0.736,0 1.334,-0.18 2.155,-0.422l0.45,-2.837c-0.589,0.591 -1.423,0.966 -2.196,0.966c-1.471,0 -2.298,-1.039 -2.068,-2.476c0.221,-1.412 1.378,-2.525 2.825,-2.525c0.807,0 1.539,0.352 1.92,1.003l0.45,-2.839Z" style="fill:#fff;fill-rule:nonzero;"/><path d="M10.799,3.819l53.199,0c0,0 -4.452,57.495 -4.503,58.718c-0.195,2.742 -1.956,2.322 -4.099,2.357l-21.209,0c-0.857,0.004 -1.187,0.953 -1.437,0.851c-0.143,-0.052 -0.46,-0.847 -1.248,-0.851l-22.846,0c-0.644,0 -2.5,0.227 -2.36,-2.014c0.077,-1.224 4.503,-59.061 4.503,-59.061Z" style="fill:none;fill-rule:nonzero;stroke:#00538e;stroke-width:0.93px;stroke-linecap:butt;stroke-linejoin:miter;"/><path d="M14.988,18.54l-1.157,0l-0.703,4.447l1.156,0l0.704,-4.447Z" style="fill:#fff;fill-rule:nonzero;"/><path d="M16.168,22.987l1.154,0l0.431,-2.725l0.013,0l1.686,2.725l1.155,0l0.704,-4.446l-1.156,0l-0.431,2.716l-0.01,0l-1.689,-2.716l-1.155,0l-0.702,4.446Z" style="fill:#fff;fill-rule:nonzero;"/><path d="M26.056,18.787c-0.359,-0.224 -0.886,-0.365 -1.336,-0.365c-0.889,0 -1.626,0.59 -1.767,1.493c-0.138,0.861 0.31,1.048 1.002,1.254c0.238,0.073 0.673,0.183 0.621,0.509c-0.049,0.311 -0.357,0.447 -0.63,0.447c-0.394,0 -0.703,-0.207 -0.952,-0.46l-0.644,0.93c0.404,0.32 0.923,0.511 1.481,0.511c0.45,0 0.933,-0.126 1.329,-0.421c0.402,-0.298 0.581,-0.758 0.65,-1.197c0.115,-0.719 -0.314,-1.031 -0.905,-1.213l-0.28,-0.088c-0.191,-0.065 -0.486,-0.167 -0.446,-0.427c0.04,-0.247 0.343,-0.373 0.554,-0.373c0.284,0 0.539,0.119 0.72,0.299l0.603,-0.899Z" style="fill:#fff;fill-rule:nonzero;"/><path d="M30.654,18.54l-0.371,2.341c-0.092,0.576 -0.233,1.209 -0.975,1.209c-0.742,0 -0.684,-0.633 -0.592,-1.209l0.368,-2.341l-1.153,0l-0.395,2.501c-0.092,0.571 -0.159,1.136 0.215,1.567c0.313,0.367 0.878,0.497 1.396,0.497c0.519,0 1.122,-0.13 1.552,-0.497c0.509,-0.431 0.626,-0.996 0.712,-1.567l0.399,-2.501l-1.156,0Z" style="fill:#fff;fill-rule:nonzero;"/><path d="M34.684,19.426l0.112,0c0.377,0 0.791,0.069 0.715,0.555c-0.079,0.482 -0.516,0.552 -0.892,0.552l-0.113,0l0.178,-1.107Zm0.868,1.738c0.65,-0.112 1.074,-0.641 1.172,-1.255c0.152,-0.95 -0.45,-1.368 -1.328,-1.368l-1.728,0l-0.704,4.446l1.155,0l0.272,-1.713l0.013,0l0.818,1.713l1.438,0l-1.108,-1.823Z" style="fill:#fff;fill-rule:nonzero;"/><path d="M40.774,21.33l-0.961,0l0.702,-1.414l0.011,0l0.248,1.414Zm0.173,0.882l0.165,0.776l1.234,0l-0.971,-4.448l-1.262,0l-2.414,4.448l1.228,0l0.427,-0.776l1.593,0Z" style="fill:#fff;fill-rule:nonzero;"/><path d="M43.831,22.987l1.158,0l0.429,-2.725l0.014,0l1.686,2.725l1.155,0l0.705,-4.446l-1.157,0l-0.43,2.716l-0.01,0l-1.687,-2.716l-1.158,0l-0.705,4.446Z" style="fill:#fff;fill-rule:nonzero;"/><path d="M54.019,18.647c-0.317,-0.143 -0.647,-0.225 -1.018,-0.225c-0.626,0 -1.298,0.27 -1.807,0.719c-0.494,0.438 -0.814,1.021 -0.914,1.628c-0.103,0.659 0.031,1.237 0.452,1.68c0.389,0.42 0.944,0.657 1.561,0.657c0.361,0 0.653,-0.089 1.053,-0.208l0.224,-1.386c-0.293,0.29 -0.699,0.473 -1.077,0.473c-0.718,0 -1.118,-0.507 -1.008,-1.209c0.108,-0.69 0.671,-1.233 1.379,-1.233c0.394,0 0.752,0.17 0.938,0.491l0.217,-1.387Z" style="fill:#fff;fill-rule:nonzero;"/><path d="M58.253,19.52l0.154,-0.98l-2.528,0l-0.705,4.447l2.53,0l0.155,-0.981l-1.371,0l0.119,-0.765l1.303,0l0.156,-0.979l-1.303,0l0.117,-0.742l1.373,0Z" style="fill:#fff;fill-rule:nonzero;"/></g></svg>
