<?xml version="1.0" encoding="UTF-8" standalone="no"?><!DOCTYPE svg PUBLIC "-//W3C//DTD SVG 1.1//EN" "http://www.w3.org/Graphics/SVG/1.1/DTD/svg11.dtd"><svg width="60" height="60" viewBox="0 0 300 300" version="1.1" xmlns="http://www.w3.org/2000/svg" xmlns:xlink="http://www.w3.org/1999/xlink" xml:space="preserve" xmlns:serif="http://www.serif.com/" style="fill-rule:evenodd;clip-rule:evenodd;stroke-linecap:round;stroke-linejoin:round;stroke-miterlimit:3.864;"><g><path d="M25.639,3.774l264.296,0c0,0 -6.633,2.753 -7.167,7.181c0,0 -16.134,190.666 -20.233,260.369c-2.84,11.687 -11.664,15.656 -20.204,15.656l-99.047,0c-2.595,0 -6.962,9.246 -6.962,9.246c0,0 -3.189,-9.246 -6.262,-9.246l-101.214,0c-11.901,0 -19.151,-7.793 -18.766,-15.819c0,0 19.657,-253.439 19.657,-260.206c-0.199,-6.15 -4.098,-7.181 -4.098,-7.181" style="fill:#fff;fill-rule:nonzero;"/><g><path d="M25.639,3.774l264.296,0c0,0 -6.633,2.753 -7.167,7.181c0,0 -16.134,190.666 -20.233,260.369c-2.84,11.687 -11.664,15.656 -20.204,15.656l-99.047,0c-2.595,0 -6.962,9.246 -6.962,9.246c0,0 -3.189,-9.246 -6.262,-9.246l-101.214,0c-11.901,0 -19.151,-7.793 -18.766,-15.819c0,0 19.657,-253.439 19.657,-260.206c-0.199,-6.15 -4.098,-7.181 -4.098,-7.181Z" style="fill:none;fill-rule:nonzero;stroke:#00538e;stroke-width:3.81px;"/><path d="M72.103,105.738l16.909,0l-13.484,167.352l-16.835,0l13.41,-167.352Z" style="fill:#ef3d42;fill-rule:nonzero;"/><path d="M106.365,105.738l16.905,0l-13.479,167.352l-16.849,0l13.423,-167.352Z" style="fill:#ef3d42;fill-rule:nonzero;"/><path d="M174.878,105.738l16.909,0l-13.484,167.352l-16.849,0l13.424,-167.352Z" style="fill:#ef3d42;fill-rule:nonzero;"/><path d="M209.127,105.738l16.919,0l-13.48,167.352l-16.848,0l13.409,-167.352Z" style="fill:#ef3d42;fill-rule:nonzero;"/><path d="M37.509,105.738l17.43,0l-13.484,167.352l-6.174,0.014c-2.701,0 -10.48,0.952 -9.891,-8.443c0.181,-3.026 6.782,-89.118 12.119,-158.923" style="fill:#ef3d42;fill-rule:nonzero;"/><path d="M230.13,273.092l13.479,-167.352l16.845,0c-5.361,69.303 -11.976,154.458 -12.092,157.484c-0.817,11.492 -8.197,9.729 -17.178,9.882l-1.054,-0.014Z" style="fill:#ef3d42;fill-rule:nonzero;"/><path d="M144.149,273.106l-1.861,0c-3.593,0.014 -4.976,3.987 -6.02,3.56c-0.604,-0.218 -1.931,-3.546 -5.236,-3.56l-3.732,-0.014l13.438,-167.459l16.914,0l-13.503,167.473Z" style="fill:#ef3d42;fill-rule:nonzero;"/></g><path d="M37.509,105.71l6.754,-88.594l222.972,0l-6.856,88.594l-222.87,0Z" style="fill:#00538e;fill-rule:nonzero;stroke:#00538e;stroke-width:3.89px;stroke-linecap:butt;stroke-linejoin:miter;"/><path d="M205.558,46.386c-1.954,12.347 5.528,20.961 17.777,20.961c12.254,0 22.474,-8.703 24.438,-21.058c1.833,-11.539 -7.009,-19.639 -17.986,-19.639c-10.992,0 -22.391,8.253 -24.229,19.792l10.323,-0.102c0.83,-5.264 6.451,-10.073 12.365,-10.073c5.941,0 10.026,4.809 9.195,10.073c-1.045,6.581 -6.656,11.385 -12.579,11.385c-5.927,0 -10.026,-4.804 -8.981,-11.385l-10.323,0.046Z" style="fill:#fff;fill-rule:nonzero;"/><path d="M63.148,45.479l-3.231,20.604l9.924,0l2.005,-12.653l5.612,0c8.665,0 14.147,-3.955 15.577,-12.964c1.392,-8.754 -3.686,-12.551 -11.883,-12.551l-15.201,0l-2.803,17.564l9.96,-0.056l1.509,-9.506l1.68,0c3.839,0 7.12,0.042 6.364,4.855c-0.743,4.651 -4.284,4.651 -7.882,4.651l-11.631,0.056Z" style="fill:#fff;fill-rule:nonzero;"/><path d="M119.797,36.304l1.332,-8.392l-21.709,0l-6.052,38.172l21.717,0l1.337,-8.41l-11.803,0l1.044,-6.577l11.182,0l1.341,-8.411l-11.186,0l1.002,-6.382l11.795,0Z" style="fill:#fff;fill-rule:nonzero;"/><path d="M118.917,66.083l9.868,0l6.674,-21.964l0.093,0l5.282,21.964l3.95,0l12.639,-21.964l0.112,0l-0.701,21.964l9.914,0l0.274,-38.168l-9.859,0l-11.432,20.395l-4.512,-20.395l-9.77,0l-12.532,38.168Z" style="fill:#fff;fill-rule:nonzero;"/><path d="M204.134,28.822c-2.743,-1.216 -5.565,-1.926 -8.763,-1.926c-5.361,0 -11.154,2.33 -15.498,6.168c-4.247,3.755 -7.005,8.768 -7.835,13.981c-0.887,5.667 0.241,10.629 3.843,14.43c3.379,3.588 8.118,5.612 13.433,5.612c3.086,0 5.593,-0.757 9.032,-1.768l1.889,-11.892c-2.469,2.478 -5.964,4.047 -9.204,4.047c-6.169,0 -9.631,-4.353 -8.671,-10.374c0.929,-5.918 5.779,-10.582 11.841,-10.582c3.384,0 6.452,1.471 8.049,4.2l1.884,-11.896Z" style="fill:#fff;fill-rule:nonzero;"/><path d="M44.262,17.116l222.973,0c0,0 -18.66,240.982 -18.873,246.106c-0.817,11.493 -8.197,9.733 -17.179,9.882l-88.895,0c-3.593,0.014 -4.976,3.992 -6.02,3.565c-0.604,-0.219 -1.931,-3.551 -5.231,-3.565l-95.756,0c-2.701,0 -10.481,0.951 -9.891,-8.443c0.32,-5.129 18.872,-247.545 18.872,-247.545Z" style="fill:none;fill-rule:nonzero;stroke:#00538e;stroke-width:3.89px;stroke-linecap:butt;stroke-linejoin:miter;"/><path d="M61.821,78.82l-4.851,0l-2.947,18.636l4.846,0l2.952,-18.636Z" style="fill:#fff;fill-rule:nonzero;"/><path d="M66.766,97.458l4.836,0l1.806,-11.423l0.056,0l7.064,11.423l4.841,0l2.952,-18.636l-4.846,0l-1.805,11.386l-0.042,0l-7.078,-11.386l-4.841,0l-2.943,18.636Z" style="fill:#fff;fill-rule:nonzero;"/><path d="M108.208,79.852c-1.504,-0.938 -3.713,-1.527 -5.598,-1.527c-3.727,0 -6.814,2.474 -7.408,6.257c-0.575,3.606 1.3,4.391 4.201,5.254c0.998,0.306 2.822,0.77 2.604,2.135c-0.204,1.304 -1.499,1.875 -2.641,1.875c-1.653,0 -2.948,-0.868 -3.992,-1.931l-2.697,3.899c1.695,1.342 3.867,2.14 6.206,2.14c1.885,0 3.913,-0.524 5.57,-1.764c1.685,-1.248 2.437,-3.175 2.725,-5.017c0.482,-3.013 -1.314,-4.322 -3.793,-5.083l-1.174,-0.367c-0.798,-0.273 -2.038,-0.7 -1.87,-1.791c0.167,-1.035 1.438,-1.564 2.325,-1.564c1.188,0 2.256,0.501 3.017,1.253l2.525,-3.769Z" style="fill:#fff;fill-rule:nonzero;"/><path d="M127.479,78.82l-1.555,9.812c-0.385,2.414 -0.975,5.064 -4.085,5.064c-3.109,0 -2.868,-2.65 -2.483,-5.064l1.546,-9.812l-4.832,0l-1.657,10.481c-0.385,2.395 -0.668,4.762 0.9,6.568c1.314,1.536 3.681,2.084 5.853,2.084c2.173,0 4.702,-0.548 6.503,-2.084c2.135,-1.806 2.623,-4.173 2.985,-6.568l1.671,-10.481l-4.846,0Z" style="fill:#fff;fill-rule:nonzero;"/><path d="M144.37,82.534l0.473,0c1.578,0 3.314,0.288 2.994,2.325c-0.33,2.019 -2.163,2.312 -3.737,2.312l-0.473,0l0.743,-4.637Zm3.639,7.282c2.724,-0.468 4.502,-2.687 4.915,-5.259c0.636,-3.982 -1.889,-5.737 -5.57,-5.737l-7.241,0l-2.952,18.636l4.841,0l1.142,-7.18l0.056,0l3.425,7.18l6.03,0l-4.646,-7.64Z" style="fill:#fff;fill-rule:nonzero;"/><path d="M169.898,90.511l-4.029,0l2.943,-5.927l0.047,0l1.039,5.927Zm0.724,3.7l0.692,3.249l5.171,0l-4.071,-18.641l-5.287,0l-10.118,18.641l5.147,0l1.787,-3.249l6.679,0Z" style="fill:#fff;fill-rule:nonzero;"/><path d="M182.711,97.458l4.85,0l1.801,-11.423l0.056,0l7.069,11.423l4.841,0l2.952,-18.636l-4.845,0l-1.806,11.386l-0.042,0l-7.069,-11.386l-4.855,0l-2.952,18.636Z" style="fill:#fff;fill-rule:nonzero;"/><path d="M225.413,79.267c-1.333,-0.599 -2.716,-0.942 -4.271,-0.942c-2.622,0 -5.44,1.132 -7.57,3.012c-2.07,1.838 -3.412,4.28 -3.834,6.823c-0.432,2.762 0.13,5.185 1.894,7.042c1.634,1.759 3.959,2.752 6.544,2.752c1.513,0 2.739,-0.371 4.414,-0.868l0.938,-5.811c-1.225,1.216 -2.929,1.982 -4.512,1.982c-3.012,0 -4.688,-2.126 -4.228,-5.069c0.455,-2.892 2.813,-5.166 5.783,-5.166c1.648,0 3.152,0.715 3.932,2.056l0.91,-5.811Z" style="fill:#fff;fill-rule:nonzero;"/><path d="M243.156,82.926l0.646,-4.108l-10.597,0l-2.952,18.641l10.601,0l0.65,-4.113l-5.746,0l0.501,-3.207l5.458,0l0.655,-4.103l-5.459,0l0.488,-3.11l5.755,0Z" style="fill:#fff;fill-rule:nonzero;"/></g></svg>
