<?xml version="1.0" encoding="UTF-8" standalone="no"?><!DOCTYPE svg PUBLIC "-//W3C//DTD SVG 1.1//EN" "http://www.w3.org/Graphics/SVG/1.1/DTD/svg11.dtd"><svg width="60" height="60" viewBox="0 0 720 720" version="1.1" xmlns="http://www.w3.org/2000/svg" xmlns:xlink="http://www.w3.org/1999/xlink" xml:space="preserve" xmlns:serif="http://www.serif.com/" style="fill-rule:evenodd;clip-rule:evenodd;stroke-linejoin:round;stroke-miterlimit:2;"><g id="Layer-1" serif:id="Layer 1"><rect x="96.616" y="342.308" width="126.953" height="126.971" style="fill:#e20074;"/><path d="M402.164,82.881c103.43,1.823 165.079,70.756 174.168,196.809l33.571,-5.442l-6.41,-221.303l-500.615,0l-6.315,221.303l33.529,5.442c9.088,-126.053 69.856,-194.986 174.165,-196.809l0,463.439c0,84.337 -14.53,97.971 -105.208,98.869l0,35.35l308.341,0l0,-35.35c-90.676,-0.898 -105.226,-14.533 -105.226,-98.869l0,-463.439Z" style="fill:#e20074;fill-rule:nonzero;"/><rect x="481.85" y="342.308" width="126.926" height="126.971" style="fill:#e20074;"/><path d="M630.95,270.492c-4.201,-4.141 -6.211,-9.181 -6.211,-15.103c0,-5.868 2.07,-10.875 6.251,-15.035c4.161,-4.201 9.148,-6.285 15.002,-6.285c5.895,0 10.956,2.084 15.109,6.285c4.188,4.16 6.292,9.167 6.292,15.035c0,5.888 -2.104,10.909 -6.292,15.076c-4.153,4.201 -9.214,6.271 -15.109,6.271c-5.894,0 -10.929,-2.07 -15.042,-6.244m-3.314,-33.586c-5.095,5.101 -7.629,11.224 -7.629,18.402c0,7.186 2.534,13.39 7.629,18.471c5.095,5.162 11.218,7.669 18.377,7.669c7.218,0 13.335,-2.507 18.422,-7.669c5.095,-5.081 7.663,-11.285 7.663,-18.471c0,-7.138 -2.568,-13.26 -7.663,-18.315c-5.087,-5.061 -11.204,-7.642 -18.422,-7.642c-7.159,0 -13.356,2.534 -18.377,7.555m22.893,19.996c3.583,-1.446 5.35,-3.926 5.35,-7.408c0,-2.534 -0.981,-4.583 -2.856,-6.029c-1.923,-1.538 -4.349,-2.251 -7.286,-2.251l-8.859,0l0,28.189l5.551,0l0,-11.191l3.207,0l7.387,11.191l6.211,0l-8.705,-12.501Zm-8.1,-11.07l3.193,0c3.314,0 4.988,1.249 4.988,3.804c0,2.735 -1.788,4.1 -5.277,4.1l-2.904,0l0,-7.904" style="fill:#e20074;fill-rule:nonzero;"/></g></svg>