<?xml version="1.0" encoding="UTF-8" standalone="no"?>
<!DOCTYPE svg PUBLIC "-//W3C//DTD SVG 1.1//EN" "http://www.w3.org/Graphics/SVG/1.1/DTD/svg11.dtd">
<svg width="100%" height="100%" viewBox="0 0 1205 371" version="1.1" xmlns="http://www.w3.org/2000/svg" xmlns:xlink="http://www.w3.org/1999/xlink" xml:space="preserve" xmlns:serif="http://www.serif.com/" style="fill-rule:evenodd;clip-rule:evenodd;stroke-linejoin:round;stroke-miterlimit:2;">
    <g transform="matrix(4.16667,0,0,4.16667,0,0)">
        <g>
            <clipPath id="_clip1">
                <rect x="0" y="0.365" width="288" height="88.635"/>
            </clipPath>
            <g clip-path="url(#_clip1)">
                <path d="M27.2,65.478C22.789,65.478 18.377,64.428 13.756,64.428C9.346,64.428 7.036,64.848 3.675,64.848C2.625,64.848 1.89,64.743 1.89,63.694C1.89,62.642 2.52,62.432 4.83,62.432C9.556,62.432 9.767,62.223 9.767,60.649L9.767,12.337C9.767,4.041 8.084,3.096 5.146,3.096C0.418,3.096 0,2.99 0,1.73C0,0.995 0.313,0.89 2.099,0.89C5.355,0.89 8.61,0.995 12.287,0.995C14.492,0.995 19.534,0.365 28.984,0.365C42.639,0.365 48.52,7.401 48.52,14.857C48.52,22.314 44.003,25.99 40.643,28.3C38.647,29.667 36.335,30.821 36.335,31.136C36.335,31.346 38.332,31.871 40.433,32.921C45.368,35.442 51.565,39.013 51.565,48.151C51.565,59.913 41.798,65.478 27.2,65.478ZM25.834,2.885C18.902,2.885 18.588,3.83 18.588,5.93L18.588,28.721C18.588,30.401 19.953,30.191 22.474,30.191C28.879,30.191 33.291,30.821 33.291,30.821C36.335,28.511 39.803,26.515 39.803,18.219C39.803,12.968 35.392,2.885 25.834,2.885ZM22.37,32.185C19.429,32.185 18.588,32.606 18.588,34.917L18.588,53.715C18.588,54.663 18.902,60.542 19.848,61.593C21.003,62.853 24.363,63.588 27.726,63.588C35.706,63.588 41.587,58.126 41.587,48.991C41.587,39.537 33.816,32.185 22.37,32.185Z" style="fill:white;fill-rule:nonzero;"/>
                <path d="M85.045,39.398C82.67,39.947 73.535,41.958 63.123,42.596C61.66,42.688 61.386,43.145 61.386,45.246C61.386,57.852 71.16,61.231 78.104,61.231C84.132,61.231 87.421,59.039 87.969,59.039C88.426,59.039 88.7,59.586 88.7,59.77C88.7,60.225 80.935,65.981 73.535,65.981C66.046,65.981 54.901,62.327 54.901,47.073C54.901,34.192 63.58,26.518 71.891,26.518C76.642,26.518 82.488,29.534 85.776,33.371C87.33,35.197 88.791,37.389 88.791,38.119C88.791,38.485 87.513,38.851 85.045,39.398ZM70.978,28.438C64.036,28.438 61.843,38.851 61.843,40.13C61.843,40.587 61.843,40.678 62.94,40.678C67.69,40.678 72.622,39.489 79.473,38.394C80.478,38.211 80.57,38.028 80.57,37.48C80.57,35.197 75.181,28.438 70.978,28.438Z" style="fill:white;fill-rule:nonzero;"/>
                <path d="M118.479,36.932C117.2,36.932 116.104,33.187 111.536,33.187C106.238,33.187 104.229,35.379 104.229,39.215L104.229,58.034C104.229,62.509 104.502,62.509 111.262,62.509C113.637,62.509 113.728,62.784 113.728,63.606C113.728,64.612 113.637,64.52 111.262,64.52C109.982,64.52 103.863,64.063 100.939,64.063C97.833,64.063 94.728,64.52 93.449,64.52C91.347,64.52 91.164,64.52 91.164,63.606C91.164,62.692 91.256,62.509 93.449,62.509C97.194,62.509 97.468,62.418 97.468,61.139L97.468,36.11C97.468,29.899 97.65,29.717 92.536,29.717C90.89,29.717 90.89,29.808 90.89,28.803C90.89,27.706 90.799,27.432 92.353,27.432C95.458,27.432 97.194,27.614 99.021,27.614C100.482,27.614 102.217,27.158 103.681,27.158C104.046,27.158 104.412,27.432 104.412,28.164C104.412,28.621 104.229,30.63 104.229,30.904C104.229,31.726 104.319,32.365 104.686,32.365C106.056,32.365 110.349,27.614 114.641,27.614C116.287,27.614 120.487,29.625 120.487,32C120.487,32.913 119.026,36.932 118.479,36.932Z" style="fill:white;fill-rule:nonzero;"/>
                <path d="M161.686,64.885C160.59,64.885 159.403,64.794 158.581,64.794C157.485,64.794 154.744,64.885 153.467,64.885C151.82,64.885 150.998,62.6 147.162,58.216C143.326,53.833 139.487,48.077 138.939,48.077C138.574,48.077 137.295,48.991 135.742,49.995C134.281,50.909 133.002,51.549 133.002,52.372L133.002,58.126C133.002,62.417 132.819,62.417 138.482,62.417C140.583,62.417 140.948,62.875 140.948,63.606C140.948,64.52 140.492,64.52 138.482,64.52C137.112,64.52 132.911,64.337 129.988,64.337C126.881,64.337 123.502,64.52 122.223,64.52C120.122,64.52 119.574,64.428 119.574,63.606C119.574,62.875 120.031,62.417 122.223,62.417C125.328,62.417 126.151,62.417 126.151,61.047C126.151,58.399 126.425,31.36 126.425,12.086C126.425,5.602 125.694,4.779 123.228,4.779C119.483,4.779 119.118,4.505 119.118,3.864C119.118,2.951 119.3,2.585 120.305,2.585C126.881,2.585 132.271,0.576 133.093,0.576C133.55,0.576 133.733,0.85 133.733,1.398C133.733,2.585 133.55,6.423 133.55,9.346C133.55,23.23 133.002,33.461 133.002,48.35C133.002,48.716 133.093,48.991 133.368,48.991C135.651,48.991 145.153,40.587 148.076,37.845C151.639,34.466 152.46,32.914 152.46,30.996C152.46,29.534 152.186,29.351 148.167,29.351C146.797,29.351 146.34,29.168 146.34,28.346C146.34,27.614 146.797,27.431 147.984,27.431C148.896,27.431 150.633,27.705 151.729,27.705C152.916,27.705 158.215,27.431 159.311,27.431C160.042,27.431 160.407,27.523 160.407,27.797C160.407,28.621 157.303,32.548 154.471,35.289C149.902,39.765 144.239,43.783 144.239,44.423C144.239,45.246 145.883,46.981 152.277,54.655C155.385,58.399 158.307,62.875 161.412,62.875C163.604,62.875 164.335,63.333 164.335,64.063C164.335,64.702 163.695,64.885 161.686,64.885Z" style="fill:white;fill-rule:nonzero;"/>
                <path d="M191.559,39.398C189.183,39.947 180.049,41.958 169.636,42.596C168.174,42.688 167.9,43.145 167.9,45.246C167.9,57.852 177.673,61.231 184.615,61.231C190.644,61.231 193.934,59.039 194.482,59.039C194.938,59.039 195.212,59.586 195.212,59.77C195.212,60.225 187.447,65.981 180.049,65.981C172.558,65.981 161.414,62.327 161.414,47.073C161.414,34.192 170.092,26.518 178.404,26.518C183.154,26.518 189,29.534 192.29,33.371C193.842,35.197 195.304,37.389 195.304,38.119C195.304,38.485 194.025,38.851 191.559,39.398ZM177.49,28.438C170.549,28.438 168.357,38.851 168.357,40.13C168.357,40.587 168.357,40.678 169.453,40.678C174.201,40.678 179.134,39.489 185.986,38.394C186.99,38.211 187.082,38.028 187.082,37.48C187.082,35.197 181.693,28.438 177.49,28.438Z" style="fill:white;fill-rule:nonzero;"/>
                <path d="M211.672,64.52C210.301,64.52 208.293,64.336 206.647,64.336C203.542,64.336 198.701,64.52 197.422,64.52C195.32,64.52 195.137,64.336 195.137,63.607C195.137,62.967 195.229,62.418 197.422,62.418C201.167,62.418 202.72,62.509 202.72,60.866L202.72,10.533C202.72,4.779 202.172,4.779 198.063,4.779C196.418,4.779 195.503,4.597 195.503,3.59C195.503,2.494 196.234,2.586 197.788,2.494C204.913,2.038 208.383,0.485 208.932,0.485C209.389,0.485 209.844,0.942 209.844,1.946C209.844,3.042 209.389,6.332 209.389,9.072C209.389,43.875 208.932,51.09 208.932,53.741C208.932,61.322 209.571,62.327 211.215,62.327C215.782,62.327 215.6,62.874 215.6,63.607C215.6,64.52 214.959,64.52 211.672,64.52Z" style="fill:white;fill-rule:nonzero;"/>
                <path d="M244.247,39.398C241.872,39.947 232.737,41.958 222.323,42.596C220.862,42.688 220.586,43.145 220.586,45.246C220.586,57.852 230.362,61.231 237.303,61.231C243.333,61.231 246.622,59.039 247.168,59.039C247.625,59.039 247.899,59.586 247.899,59.77C247.899,60.225 240.135,65.981 232.737,65.981C225.245,65.981 214.1,62.327 214.1,47.073C214.1,34.192 222.78,26.518 231.092,26.518C235.842,26.518 241.69,29.534 244.977,33.371C246.53,35.197 247.991,37.389 247.991,38.119C247.991,38.485 246.711,38.851 244.247,39.398ZM230.178,28.438C223.237,28.438 221.043,38.851 221.043,40.13C221.043,40.587 221.043,40.678 222.139,40.678C226.891,40.678 231.823,39.489 238.674,38.394C239.678,38.211 239.772,38.028 239.772,37.48C239.772,35.197 234.379,28.438 230.178,28.438Z" style="fill:white;fill-rule:nonzero;"/>
                <path d="M285.625,29.625C283.616,29.625 279.596,40.587 272.381,58.126C266.624,72.1 262.514,79.5 259.592,85.53C258.588,87.54 257.491,87.63 255.481,87.905C252.741,88.27 252.102,89 250.092,89C248.538,89 247.625,88.544 247.625,88.087C247.625,87.54 251.918,86.992 255.024,83.063C258.312,78.953 266.168,68.173 266.168,65.434C266.168,64.428 258.862,47.528 253.836,35.653C251.553,30.173 250.913,29.716 249.27,29.716C247.442,29.716 247.352,29.625 247.352,28.803C247.352,27.981 247.625,27.523 249.27,27.523C251.827,27.523 252.467,27.705 254.659,27.705C257.215,27.705 260.413,27.432 263.336,27.432C265.254,27.432 265.62,27.797 265.62,28.803C265.62,29.625 265.254,29.716 263.336,29.716C261.144,29.716 260.596,30.265 260.596,32.365C260.596,35.015 262.971,38.211 268.452,52.28C269.184,54.198 270.28,55.751 270.645,55.751C271.284,55.751 271.833,54.471 273.293,50.177C275.485,43.602 278.774,34.101 278.774,32.822C278.774,30.083 278.774,29.535 275.668,29.535C272.838,29.535 272.471,29.535 272.471,28.621C272.471,27.432 272.745,27.432 274.389,27.432C276.856,27.432 278.499,27.614 280.967,27.614C282.338,27.614 284.803,27.25 286.083,27.25C287.543,27.25 288,27.34 288,28.346C288,29.168 286.721,29.625 285.625,29.625Z" style="fill:white;fill-rule:nonzero;"/>
                <path d="M12.44,87.663C9.445,87.663 7.93,85.969 7.93,83.223L7.93,75.255L10.05,75.255L10.05,83.331C10.05,84.864 10.693,85.862 12.44,85.862C14.169,85.862 14.811,84.864 14.811,83.348L14.811,75.255L16.933,75.255L16.933,83.206C16.933,85.969 15.418,87.663 12.44,87.663Z" style="fill:white;fill-rule:nonzero;"/>
                <path d="M27.217,87.467L22.065,79.266L22.03,79.266L22.03,87.467L19.908,87.467L19.908,75.451L21.958,75.237L26.932,83.278L26.986,83.278L26.986,75.254L29.107,75.254L29.107,87.467L27.217,87.467Z" style="fill:white;fill-rule:nonzero;"/>
                <rect x="32.134" y="75.255" width="2.121" height="12.212" style="fill:white;fill-rule:nonzero;"/>
                <path d="M42.883,87.467L40.548,87.467L36.341,75.254L38.586,75.254L40.922,82.065C40.922,82.065 41.154,82.778 41.742,84.864L41.849,84.864C42.456,82.778 42.687,82.082 42.687,82.082L45.022,75.254L47.108,75.254L42.883,87.467Z" style="fill:white;fill-rule:nonzero;"/>
                <path d="M56.59,87.467L49.174,87.467L49.174,75.237L56.447,75.237L56.447,77.038L51.295,77.038L51.295,80.407L55.877,80.407L55.877,82.207L51.295,82.207L51.295,85.666L56.75,85.666L56.59,87.467Z" style="fill:white;fill-rule:nonzero;"/>
                <path d="M65.965,87.467L64.272,84.026C63.915,83.295 63.469,82.582 62.702,82.582L61.686,82.582L61.686,87.467L59.564,87.467L59.564,75.254L63.487,75.254C66.179,75.254 67.516,76.752 67.516,78.873C67.516,80.334 66.821,81.584 65.216,82.19L65.216,82.225C65.608,82.457 65.823,82.778 65.965,83.063L68.301,87.467L65.965,87.467ZM63.434,77.073L61.686,77.073L61.686,80.799L63.469,80.799C64.752,80.799 65.341,80.051 65.341,78.892C65.341,77.75 64.877,77.073 63.434,77.073Z" style="fill:white;fill-rule:nonzero;"/>
                <path d="M73.789,87.663C72.113,87.663 70.758,87.003 69.761,86.308L70.651,84.739C71.65,85.416 72.844,85.862 73.789,85.862C75.197,85.862 75.893,85.077 75.893,84.168C75.893,81.886 70.491,82.618 70.491,78.517C70.491,76.36 72.291,75.059 74.449,75.059C75.732,75.059 76.963,75.505 77.996,76.146L77.23,77.679C76.32,77.216 75.5,76.86 74.449,76.86C73.272,76.86 72.666,77.519 72.666,78.428C72.666,81.192 78.068,79.944 78.068,84.097C78.068,86.165 76.124,87.663 73.789,87.663Z" style="fill:white;fill-rule:nonzero;"/>
                <rect x="80.597" y="75.255" width="2.121" height="12.212" style="fill:white;fill-rule:nonzero;"/>
                <path d="M93.591,77.055L90.507,77.055L90.507,87.466L88.386,87.466L88.386,77.073L85.159,77.073L85.159,75.254L93.752,75.254L93.591,77.055Z" style="fill:white;fill-rule:nonzero;"/>
                <path d="M101.113,82.243L101.113,87.467L98.99,87.467L98.99,82.243L95.14,75.254L97.529,75.254L99.151,78.732C99.151,78.732 99.383,79.176 100.026,80.532L100.079,80.532C100.685,79.176 100.899,78.732 100.899,78.732L102.628,75.254L104.964,75.254L101.113,82.243Z" style="fill:white;fill-rule:nonzero;"/>
                <path d="M117.511,87.663C113.82,87.663 112.198,84.846 112.198,81.352C112.198,77.679 113.838,75.059 117.511,75.059C121.183,75.059 122.823,77.679 122.823,81.352C122.823,84.846 121.201,87.663 117.511,87.663ZM117.511,76.86C115.408,76.86 114.373,78.678 114.373,81.334C114.373,84.008 115.408,85.862 117.511,85.862C119.598,85.862 120.63,84.008 120.63,81.352C120.63,78.696 119.614,76.86 117.511,76.86Z" style="fill:white;fill-rule:nonzero;"/>
                <path d="M127.669,77.038L127.669,80.408L132.163,80.408L132.163,82.207L127.669,82.207L127.669,87.466L125.549,87.466L125.549,75.237L132.679,75.237L132.679,77.038L127.669,77.038Z" style="fill:white;fill-rule:nonzero;"/>
                <path d="M146.064,87.663C142.304,87.663 140.663,85.114 140.663,81.37C140.663,77.698 142.464,75.059 146.136,75.059C147.65,75.059 148.917,75.575 150.199,76.628L149.096,78.053C148.15,77.269 147.295,76.86 146.136,76.86C143.979,76.86 142.838,78.482 142.838,81.352C142.838,84.241 143.907,85.862 146.171,85.862C147.259,85.862 148.4,85.364 149.398,84.454L150.486,85.844C149.238,86.985 147.705,87.663 146.064,87.663Z" style="fill:white;fill-rule:nonzero;"/>
                <path d="M160.502,87.467L159.486,84.525L154.566,84.525L153.55,87.467L151.57,87.467L155.867,75.433L158.345,75.237L162.678,87.467L160.502,87.467ZM158.007,80.317C158.007,80.317 157.863,79.926 157.025,77.395L156.99,77.395C156.17,79.926 156.027,80.317 156.027,80.317L155.083,83.01L158.951,83.01L158.007,80.317Z" style="fill:white;fill-rule:nonzero;"/>
                <path d="M171.625,87.467L164.404,87.467L164.404,75.254L166.525,75.254L166.525,85.666L171.785,85.666L171.625,87.467Z" style="fill:white;fill-rule:nonzero;"/>
                <rect x="173.852" y="75.255" width="2.121" height="12.212" style="fill:white;fill-rule:nonzero;"/>
                <path d="M180.855,77.038L180.855,80.408L185.348,80.408L185.348,82.207L180.855,82.207L180.855,87.466L178.733,87.466L178.733,75.237L185.865,75.237L185.865,77.038L180.855,77.038Z" style="fill:white;fill-rule:nonzero;"/>
                <path d="M192.549,87.663C188.858,87.663 187.235,84.846 187.235,81.352C187.235,77.679 188.875,75.059 192.549,75.059C196.221,75.059 197.86,77.679 197.86,81.352C197.86,84.846 196.238,87.663 192.549,87.663ZM192.549,76.86C190.444,76.86 189.41,78.678 189.41,81.334C189.41,84.008 190.444,85.862 192.549,85.862C194.635,85.862 195.668,84.008 195.668,81.352C195.668,78.696 194.652,76.86 192.549,76.86Z" style="fill:white;fill-rule:nonzero;"/>
                <path d="M206.094,87.467L204.401,84.026C204.045,83.295 203.599,82.582 202.832,82.582L201.815,82.582L201.815,87.467L199.694,87.467L199.694,75.254L203.617,75.254C206.309,75.254 207.645,76.752 207.645,78.873C207.645,80.334 206.952,81.584 205.346,82.19L205.346,82.225C205.739,82.457 205.954,82.778 206.094,83.063L208.43,87.467L206.094,87.467ZM203.563,77.073L201.815,77.073L201.815,80.799L203.599,80.799C204.883,80.799 205.471,80.051 205.471,78.892C205.471,77.75 205.008,77.073 203.563,77.073Z" style="fill:white;fill-rule:nonzero;"/>
                <path d="M217.395,87.467L212.245,79.266L212.208,79.266L212.208,87.467L210.086,87.467L210.086,75.451L212.137,75.237L217.11,83.278L217.165,83.278L217.165,75.254L219.286,75.254L219.286,87.467L217.395,87.467Z" style="fill:white;fill-rule:nonzero;"/>
                <rect x="221.956" y="75.255" width="2.121" height="12.212" style="fill:white;fill-rule:nonzero;"/>
                <path d="M234.737,87.467L233.721,84.525L228.801,84.525L227.786,87.467L225.805,87.467L230.102,75.433L232.581,75.237L236.913,87.467L234.737,87.467ZM232.243,80.317C232.243,80.317 232.098,79.926 231.26,77.395L231.225,77.395C230.405,79.926 230.262,80.317 230.262,80.317L229.317,83.01L233.186,83.01L232.243,80.317Z" style="fill:white;fill-rule:nonzero;"/>
            </g>
        </g>
    </g>
</svg>
