<?xml version="1.0" encoding="UTF-8"?>
<svg xmlns="http://www.w3.org/2000/svg" id="Layer_1" data-name="Layer 1" viewBox="0 0 275 72.84">
  <defs>
    <style>.cls-1{fill:#fff;}</style>
  </defs>
  <title>seiu-logo-main</title>
  <path class="cls-1" d="M1.57,53.35A45.69,45.69,0,0,0,21,57.91c4,0,11.15-.6,12.37-5.52C35.6,43.49,7.28,36.6,11.71,18.8,13.74,10.64,23.45.64,45.25.48A129.73,129.73,0,0,1,66.86,2.31l-1.4,16.52A46.66,46.66,0,0,0,47.8,15.4C44,15.43,37,16.84,36.12,20.5,33.57,30.76,62.47,35.35,57.93,53.56,55.59,63,45.13,72.67,23.1,72.83A137.58,137.58,0,0,1,0,70.6Z"></path>
  <path class="cls-1" d="M129.83,28l-3.72,15-33.06.24L89.9,55.83l39.33-.29-3.72,15L65.82,71,83.2,1.17,142.88.69l-3.72,15L99.82,16l-3,12.25Z"></path>
  <path class="cls-1" d="M155.34,1.44l24.88-.19L162.84,71.07,138,71.25Z"></path>
  <path class="cls-1" d="M221.21.4l-9.9,39.77c-2.5,10-.79,16,10.47,15.91S237.72,50,240.22,40L250.12.18,275,0,263.22,47.31c-4.19,16.85-22,23.88-45.25,24s-37.61-6.61-33.42-23.47L196.33.59Z"></path>
</svg>
